#!OML:ASF G:\ViconDB\ViconDB\414\test\team2\shane.ASF
:FULLY-SPECIFIED
:DEGREES
349
root 4.19142 17.1392 23.9815 -9.10176 2.06598 -3.63352
lowerback 8.25891 -4.31645 0.0152268
upperback 4.76634 -5.73191 3.42343
thorax 0.68312 -2.92836 3.94546
lowerneck -20.1029 0.255125 -6.92433
upperneck 22.4902 0.882231 6.4155
head 10.4632 0.594485 3.59522
rclavicle 3.24516e-014 -1.90833e-014
rhumerus -37.8287 1.8421 -84.1915
rradius 28.1249
rwrist 34.3954
rhand -29.0213 -15.6008
rfingers 7.12502
rthumb -2.37229 -45.5674
lclavicle 3.24516e-014 -1.90833e-014
lhumerus -20.343 -12.3411 95.9217
lradius 27.9161
lwrist -20.7141
lhand -40.6394 5.93661
lfingers 7.12502
lthumb -13.5841 35.4734
rfemur -21.5379 -11.2397 17.2896
rtibia 45.3951
rfoot -8.58615 6.16137
rtoes -13.6494
lfemur 19.8729 1.52369 -15.4232
ltibia 13.2174
lfoot -17.8508 -15.7133
ltoes -14.1676
350
root 4.18061 17.1662 24.1407 -9.09057 2.48784 -3.93556
lowerback 8.28212 -4.59715 0.156655
upperback 4.6823 -6.09218 3.66579
thorax 0.62164 -3.10908 4.1483
lowerneck -20.1027 0.50468 -6.55505
upperneck 22.7644 1.26067 5.83053
head 10.5422 0.723848 3.38253
rclavicle -1.61016e-014 -3.02153e-014
rhumerus -37.8287 1.8421 -84.1915
rradius 28.1249
rwrist 34.3954
rhand -29.0213 -15.6008
rfingers 7.12502
rthumb -2.37229 -45.5674
lclavicle -1.61016e-014 -3.02153e-014
lhumerus -19.5573 -12.2352 95.7419
lradius 28.3736
lwrist -21.0682
lhand -40.2883 5.44482
lfingers 7.12502
lthumb -13.2457 35.004
rfemur -21.8361 -11.1771 17.7681
rtibia 43.2917
rfoot -6.83535 6.51771
rtoes -14.6005
lfemur 21.4645 1.40326 -14.8396
ltibia 10.6037
lfoot -16.4469 -16.7194
ltoes -14.2439
351
root 4.16364 17.1789 24.3084 -9.06381 2.67655 -4.3625
lowerback 8.15717 -4.79031 0.305518
upperback 4.66558 -6.34286 4.00095
thorax 0.71534 -3.23893 4.4186
lowerneck -20.12 0.505016 -6.68858
upperneck 22.8853 1.34529 5.67003
head 10.5846 0.728893 3.36263
rclavicle 5.36719e-015 -1.59028e-014
rhumerus -37.8287 1.8421 -84.1915
rradius 28.1249
rwrist 34.3954
rhand -29.0213 -15.6008
rfingers 7.12502
rthumb -2.37229 -45.5674
lclavicle 5.36719e-015 -1.59028e-014
lhumerus -18.6149 -12.2701 95.6172
lradius 28.7209
lwrist -21.1598
lhand -39.9875 4.97222
lfingers 7.12502
lthumb -12.9557 34.55
rfemur -22.1324 -10.9713 18.4332
rtibia 41.3391
rfoot -4.96345 6.86676
rtoes -15.1234
lfemur 23.5484 1.06153 -14.2237
ltibia 7.1443
lfoot -14.7338 -17.2088
ltoes -14.3842
352
root 4.17023 17.1733 24.4865 -9.12796 2.55713 -4.07079
lowerback 8.00194 -4.83022 0.249126
upperback 4.63872 -6.40433 3.97111
thorax 0.779724 -3.27098 4.40886
lowerneck -19.8555 0.589423 -6.72294
upperneck 22.9635 1.46043 5.64879
head 10.5542 0.772394 3.37455
rclavicle -2.45499e-014 -7.95139e-016
rhumerus -37.8287 1.8421 -84.1915
rradius 28.1249
rwrist 34.3954
rhand -29.0213 -15.6008
rfingers 7.12502
rthumb -2.37229 -45.5674
lclavicle -2.45499e-014 -7.95139e-016
lhumerus -17.9145 -12.7542 95.5325
lradius 29.2045
lwrist -20.9407
lhand -39.7988 5.16522
lfingers 7.12502
lthumb -12.7738 34.7544
rfemur -22.3381 -11.063 18.2247
rtibia 39.5133
rfoot -3.1362 7.5999
rtoes -15.6571
lfemur 27.6363 1.18063 -14.4314
ltibia 1.90833e-014
lfoot -11.201 -17.993
ltoes -13.9548
353
root 4.15337 17.1532 24.6494 -9.09895 2.81178 -4.13081
lowerback 8.09207 -4.97263 0.0589466
upperback 4.50151 -6.59991 4.12965
thorax 0.644401 -3.37373 4.70679
lowerneck -19.7597 0.735544 -6.64672
upperneck 23.2177 1.62674 5.65835
head 10.6169 0.85161 3.39483
rclavicle -4.59193e-014 3.33958e-014
rhumerus -43.042 3.52261 -81.7977
rradius 29.9167
rwrist 31.7199
rhand -28.4115 -14.993
rfingers 7.12502
rthumb -1.78336 -44.9653
lclavicle -4.59193e-014 3.33958e-014
lhumerus -17.0767 -13.1018 95.3675
lradius 29.4633
lwrist -20.7869
lhand -39.5821 5.4332
lfingers 7.12502
lthumb -12.5649 35.0354
rfemur -22.7549 -11.014 18.4698
rtibia 37.935
rfoot -1.38478 7.47355
rtoes -15.7337
lfemur 28.1229 0.817343 -14.186
ltibia -1.90833e-014
lfoot -11.9777 -18.5601
ltoes -13.9065
354
root 4.14532 17.1318 24.8062 -8.78725 3.32334 -4.03381
lowerback 7.92579 -5.22439 -0.200127
upperback 4.32833 -6.95211 4.28359
thorax 0.636419 -3.55702 5.02307
lowerneck -19.6969 0.768308 -6.7011
upperneck 23.3522 1.72341 5.5075
head 10.6489 0.86907 3.36572
rclavicle -6.4605e-016 3.10104e-014
rhumerus -43.8265 3.95519 -81.3702
rradius 30.1274
rwrist 31.655
rhand -28.3783 -14.9305
rfingers 7.12502
rthumb -1.75124 -44.903
lclavicle -6.4605e-016 3.10104e-014
lhumerus -16.0802 -13.1591 95.2861
lradius 29.5757
lwrist -20.6617
lhand -39.9707 5.09963
lfingers 7.12502
lthumb -12.9396 34.6784
rfemur -23.5396 -11.5427 18.5037
rtibia 36.6603
rfoot 0.104763 7.59589
rtoes -15.9152
lfemur 28.3082 0.287678 -14.2137
ltibia 1.59028e-014
lfoot -12.7289 -19.0189
ltoes -13.9196
355
root 4.13472 17.0984 24.9761 -8.76864 3.50769 -4.15232
lowerback 7.9985 -5.29035 -0.0343995
upperback 4.14297 -7.01845 4.34491
thorax 0.397481 -3.58211 5.01873
lowerneck -19.5064 0.728872 -6.58445
upperneck 23.6288 1.62864 5.44411
head 10.7231 0.822016 3.31487
rclavicle 1.26725e-014 8.74653e-015
rhumerus -44.8916 4.1438 -81.0079
rradius 30.3646
rwrist 31.6369
rhand -28.1269 -14.9202
rfingers 7.12502
rthumb -1.50846 -44.8946
lclavicle 1.26725e-014 8.74653e-015
lhumerus -15.3532 -13.6714 95.1596
lradius 29.6302
lwrist -20.559
lhand -40.0902 5.15249
lfingers 7.12502
lthumb -13.0548 34.7239
rfemur -24.0645 -11.9143 18.7862
rtibia 35.6341
rfoot 1.36841 7.5744
rtoes -15.1592
lfemur 28.9214 -0.00131357 -13.9368
ltibia 4.45278e-014
lfoot -13.7985 -19.4241
ltoes -13.8773
356
root 4.12962 17.0431 25.1465 -8.58845 3.87777 -4.11655
lowerback 7.8707 -5.48646 -0.267439
upperback 3.98855 -7.2947 4.48118
thorax 0.379926 -3.72583 5.30027
lowerneck -19.2829 0.771562 -6.56896
upperneck 23.6172 1.65985 5.47375
head 10.6732 0.83974 3.3228
rclavicle -3.8266e-014 7.95139e-016
rhumerus -45.8336 5.20028 -81.0416
rradius 30.575
rwrist 30.9124
rhand -28.3297 -15.0837
rfingers 7.12502
rthumb -1.70435 -45.0566
lclavicle -3.8266e-014 7.95139e-016
lhumerus -14.4393 -13.4691 94.9928
lradius 29.6496
lwrist -20.9139
lhand -40.4541 5.31088
lfingers 7.12502
lthumb -13.4055 34.8596
rfemur -24.8108 -13.1765 19.0327
rtibia 34.8611
rfoot 1.99211 8.08455
rtoes -15.3941
lfemur 29.3675 -0.370839 -13.9767
ltibia 1.90833e-014
lfoot -15.0802 -19.547
ltoes -14.197
357
root 4.11397 16.9945 25.3195 -8.33993 4.22194 -4.05448
lowerback 7.86965 -5.53587 -0.35766
upperback 3.65431 -7.3535 4.53004
thorax 0.0565462 -3.74761 5.42585
lowerneck -19.1417 0.803789 -6.36221
upperneck 23.9348 1.64353 5.402
head 10.767 0.835938 3.26697
rclavicle -1.56444e-013 5.48646e-014
rhumerus -47.0865 5.02724 -80.4204
rradius 30.8315
rwrist 31.4354
rhand -28.3493 -14.5909
rfingers 7.12502
rthumb -1.72323 -44.5637
lclavicle -1.56444e-013 5.48646e-014
lhumerus -13.722 -14.5955 94.9687
lradius 29.5532
lwrist -20.2595
lhand -40.8459 5.55753
lfingers 7.12502
lthumb -13.7832 35.0809
rfemur -25.6172 -13.8914 19.1972
rtibia 34.3326
rfoot 2.60364 8.14419
rtoes -15.2537
lfemur 29.7539 -0.746425 -13.9475
ltibia -9.54166e-014
lfoot -16.0733 -19.8174
ltoes -14.0235
358
root 4.10184 16.9345 25.4932 -8.04842 4.65613 -4.07754
lowerback 7.62679 -5.667 -0.476464
upperback 3.4652 -7.5359 4.64631
thorax 0.0430705 -3.84001 5.60703
lowerneck -18.9639 0.638104 -6.86862
upperneck 23.9102 1.41336 5.92997
head 10.7289 0.749212 3.50882
rclavicle -3.37437e-014 1.98785e-014
rhumerus -48.0766 5.34227 -80.043
rradius 31.2462
rwrist 31.2407
rhand -28.2381 -14.1974
rfingers 7.12502
rthumb -1.6159 -44.171
lclavicle -3.37437e-014 1.98785e-014
lhumerus -12.753 -14.8457 94.7903
lradius 29.3613
lwrist -20.8152
lhand -41.1061 6.05108
lfingers 7.12502
lthumb -14.0339 35.5573
rfemur -26.5121 -15.1006 19.5555
rtibia 34.0723
rfoot 3.2428 8.96199
rtoes -15.7916
lfemur 30.0825 -1.18571 -13.9128
ltibia -2.22639e-014
lfoot -17.1256 -19.8427
ltoes -13.909
